<?xml version="1.0" encoding="utf-8"?>
<svg version="1.1" xmlns:xlink="http://www.w3.org/1999/xlink" width="10px" height="10px" xmlns="http://www.w3.org/2000/svg">
  <g transform="matrix(1 0 0 1 -1554 -238 )">
    <path d="M 1559 239  C 1561.24 239  1563 240.76  1563 243  C 1563 245.24  1561.24 247  1559 247  C 1556.76 247  1555 245.24  1555 243  C 1555 240.76  1556.76 239  1559 239  Z " fill-rule="nonzero" fill="#ffffff" stroke="none" />
    <path d="M 1559 239  C 1561.24 239  1563 240.76  1563 243  C 1563 245.24  1561.24 247  1559 247  C 1556.76 247  1555 245.24  1555 243  C 1555 240.76  1556.76 239  1559 239  Z " stroke-width="2" stroke="#d9d9d9" fill="none" />
  </g>
</svg>