<?xml version="1.0" encoding="utf-8"?>
<svg version="1.1" xmlns:xlink="http://www.w3.org/1999/xlink" width="34px" height="34px" xmlns="http://www.w3.org/2000/svg">
  <defs>
    <filter x="1500px" y="629px" width="34px" height="34px" filterUnits="userSpaceOnUse" id="filter2">
      <feOffset dx="1" dy="1" in="SourceAlpha" result="shadowOffsetInner" />
      <feGaussianBlur stdDeviation="2.5" in="shadowOffsetInner" result="shadowGaussian" />
      <feComposite in2="shadowGaussian" operator="atop" in="SourceAlpha" result="shadowComposite" />
      <feColorMatrix type="matrix" values="0 0 0 0 0  0 0 0 0 0  0 0 0 0 0  0 0 0 0.698039215686274 0  " in="shadowComposite" />
    </filter>
    <g id="widget3">
      <path d="M 1516 633  C 1522.72 633  1528 638.28  1528 645  C 1528 651.72  1522.72 657  1516 657  C 1509.28 657  1504 651.72  1504 645  C 1504 638.28  1509.28 633  1516 633  Z " fill-rule="nonzero" fill="#797979" stroke="none" />
      <path d="M 1516 633.5  C 1522.44 633.5  1527.5 638.56  1527.5 645  C 1527.5 651.44  1522.44 656.5  1516 656.5  C 1509.56 656.5  1504.5 651.44  1504.5 645  C 1504.5 638.56  1509.56 633.5  1516 633.5  Z " stroke-width="1" stroke="#ffffff" fill="none" />
    </g>
  </defs>
  <g transform="matrix(1 0 0 1 -1500 -629 )">
    <use xlink:href="#widget3" filter="url(#filter2)" />
    <use xlink:href="#widget3" />
  </g>
</svg>